<svg width="51" height="39" viewBox="0 0 51 39" fill="none" xmlns="http://www.w3.org/2000/svg">
<g clip-path="url(#clip0_785_270)">
<path d="M28.5824 3.7138C28.6042 3.84185 28.554 4.00572 28.4903 4.12075C28.4706 4.15681 28.4167 4.12689 28.4005 4.15062C28.3687 4.19636 28.3865 4.24954 28.3486 4.29275C28.3358 4.30682 28.2507 4.26549 28.2393 4.28034C28.178 4.36074 28.1768 4.4508 28.1288 4.53401C27.8925 4.93864 27.6388 5.29752 27.3117 5.59672C27.2031 5.69653 27.0214 5.75363 26.9317 5.87328C26.9211 5.88747 26.9801 5.94404 26.9817 5.9513C27.0043 6.06433 26.9159 5.92543 26.8763 5.92874C26.7189 5.94221 26.5992 6.0131 26.5059 6.10314C26.4662 6.1415 26.5928 6.25483 26.5002 6.20322C26.4939 6.1997 26.4639 6.11787 26.4467 6.11694C26.4079 6.11501 26.3601 6.15745 26.334 6.16274C26.2839 6.17247 26.2772 6.17663 26.2347 6.19521C26.1759 6.21997 26.0911 6.20916 26.0353 6.25092C26.0232 6.26015 26.0725 6.33598 26.0554 6.35833C26.0384 6.38081 25.976 6.3946 25.9494 6.38127C25.9229 6.36808 25.9101 6.29926 25.9017 6.28528C25.8333 6.16663 25.8222 6.36374 25.8131 6.3709C25.6706 6.49219 25.5032 6.41672 25.3521 6.43514C25.2365 6.44952 25.1132 6.49093 24.9999 6.48668C24.999 6.48665 24.998 6.48661 24.9971 6.48657C24.8613 6.48005 24.7524 6.42491 24.6236 6.41702C24.6099 6.41603 24.6127 6.52103 24.5955 6.51993C24.4126 6.50795 24.2315 6.45508 24.0828 6.33325C24.0681 6.32097 24.1179 6.24138 24.1052 6.22405C24.0234 6.11922 23.959 5.89792 23.7342 6.22992C23.6729 6.18462 23.5987 6.12817 23.5816 6.02659C23.571 5.96137 23.6549 5.89511 23.5911 5.90707C23.5767 5.90954 23.5453 5.99194 23.5266 5.98971C23.4473 5.97976 23.3959 5.91287 23.3108 5.90789C23.2933 5.90698 23.2515 5.97283 23.2399 5.98177C23.1431 6.05254 23.205 5.86432 23.2042 5.8463C23.1893 5.70634 23.1126 5.69385 23.0474 5.6311C23.0325 5.61652 22.9799 5.71037 22.9626 5.69871C22.8736 5.63679 22.8009 5.54853 22.7678 5.43964C22.7608 5.41531 22.842 5.37296 22.8422 5.35853C22.8436 5.2966 22.7074 5.39607 22.7061 5.33664C22.7059 5.32435 22.7689 5.28105 22.7744 5.27445C22.8608 5.17199 22.7001 5.26864 22.6921 5.265C22.5918 5.22586 22.7179 5.06678 22.6506 5.01366C22.6422 5.00702 22.5735 5.07882 22.5546 5.05646C22.4273 4.90747 22.3553 4.70387 22.3616 4.50147C22.3625 4.47006 22.4377 4.4641 22.4454 4.45914C22.5663 4.38387 22.3846 4.4311 22.3746 4.42401C22.3014 4.36882 22.4327 4.26029 22.2045 4.27101C22.1957 4.00675 22.0947 3.75753 22.1682 3.49999C22.1864 3.4373 22.2152 3.37691 22.2585 3.31883C22.261 3.31514 22.3526 3.32795 22.3573 3.32074C22.4156 3.23495 22.2715 3.2428 22.1045 3.15806C22.0627 3.13549 22.2789 3.11412 22.2948 3.11317C22.3535 3.10644 22.4871 3.14117 22.4987 3.13788C22.5902 3.1131 22.1409 3.05012 22.1512 2.98955C22.1522 2.98788 22.2331 3.0101 22.2421 3.0067C22.2704 2.99644 22.2405 2.97563 22.2716 2.96657C22.3435 2.94561 22.5608 2.98194 22.4463 2.90713C22.4316 2.89721 22.1783 2.84921 22.203 2.79967C22.2126 2.78029 22.2335 2.68771 22.2574 2.66763C22.281 2.64746 22.355 2.68908 22.359 2.68825C22.4838 2.65656 22.5194 2.69502 22.6831 2.71692C22.8456 2.74121 22.4786 2.62302 22.4426 2.59565C22.4067 2.56811 22.5087 2.55289 22.5422 2.5538C22.5757 2.5543 22.6196 2.58668 22.6399 2.5837C22.7721 2.56557 22.4731 2.48516 22.4253 2.44018C22.3139 2.33036 22.5946 2.40333 22.6399 2.37357C22.6524 2.36496 22.589 2.34651 22.5887 2.33304C22.5891 2.27928 22.6808 2.2957 22.6346 2.20947C22.6266 2.19609 22.4996 2.07079 22.6238 2.10863C22.6416 2.11438 22.6973 2.16015 22.7212 2.15099C22.757 2.13731 22.7982 2.10067 22.7958 2.06098C22.7942 2.03145 22.6809 1.98979 22.7284 1.98427C22.7495 1.9821 22.7927 2.04086 22.8272 2.03412C22.8615 2.02751 22.8949 1.97512 22.9073 1.95467C22.9195 1.93421 22.8404 1.89126 22.8367 1.88617C22.8162 1.85607 22.8116 1.79149 22.8145 1.78813C22.9433 1.60759 23.1866 1.57587 23.3098 1.41185C23.3199 1.39886 23.2526 1.33242 23.2536 1.32968C23.2734 1.26359 23.3943 1.48636 23.4743 1.52988C23.3532 1.38266 23.3917 1.39615 23.4099 1.35657C23.4187 1.33736 23.3668 1.28392 23.3637 1.27685C23.3206 1.16937 23.422 1.27499 23.4428 1.29657C23.5203 1.37519 23.4629 1.25838 23.5144 1.31145C23.5648 1.36461 23.6029 1.46814 23.6304 1.44797C23.6009 1.38563 23.479 1.25263 23.4866 1.21282C23.5183 1.05837 23.771 1.0786 23.8521 1.0587C23.9354 1.0359 23.9564 1.01418 24.0114 1.01848C24.1103 1.02783 24.0325 0.916174 24.067 0.839384C24.1032 0.762854 24.18 1.08073 24.2099 1.1444C24.2389 1.20844 24.2237 1.13764 24.2442 1.1714C24.2644 1.20528 24.2613 1.25627 24.2849 1.26383C24.3077 1.27147 24.3252 1.13658 24.3138 1.06394C24.2882 0.910274 24.217 0.760814 24.2933 0.799624C24.2976 0.802014 24.3081 0.887704 24.3234 0.892674C24.4421 0.929914 24.549 0.913463 24.658 0.957773C24.6728 0.964033 24.673 1.06004 24.6815 1.06479C24.7689 1.11552 24.7207 0.959753 24.7524 0.777453C24.7636 1.01485 24.8015 1.15654 24.8594 1.15441C24.8949 1.15337 24.8833 1.05026 24.9049 0.976273C24.9116 0.953953 24.9403 1.02432 24.9439 0.975534C24.9572 0.816094 24.9269 0.637794 24.9999 0.708164C24.9999 0.708144 24.9999 0.708194 24.9999 0.708164C25.001 0.709354 25.0006 0.721044 24.9999 0.735814C24.999 0.755234 24.9979 0.780123 24.9999 0.793933C25.0007 0.799413 25.0019 0.803153 25.0039 0.804123C25.0713 0.839233 25.0828 0.672643 25.1622 0.656403C25.2253 0.643683 25.3229 0.755073 25.3855 0.781063C25.3481 1.04512 25.4111 0.992673 25.4682 0.816073C25.5093 0.830813 25.5571 0.829723 25.5922 0.863643C25.6041 0.875233 25.5779 0.948513 25.5779 0.957053C25.574 1.09042 25.6319 0.920424 25.643 0.915934C25.7581 0.874544 25.7935 1.02715 25.9262 0.933963C25.9308 0.930553 26.0003 0.758504 25.9781 0.894694C25.9761 0.903934 25.9174 0.971883 25.9569 0.993763C25.9975 1.01608 26.0332 1.13836 26.1238 1.0862C26.1452 1.07331 26.247 0.955174 26.2223 1.07448C26.2188 1.09056 26.1909 1.13601 26.1826 1.16498C26.1557 1.25705 26.2514 1.09564 26.1961 1.24645C26.1409 1.39737 26.1155 1.51888 26.2182 1.45228C26.2212 1.45035 26.3091 1.32991 26.324 1.34182C26.3474 1.36067 26.3657 1.40917 26.3913 1.42531C26.4037 1.43302 26.4476 1.35144 26.4507 1.35147C26.5647 1.36675 26.576 1.47812 26.6334 1.57312C26.6431 1.59006 26.7704 1.53428 26.7313 1.63386C26.6867 1.74143 26.348 2.04302 26.4789 2.0204C26.5283 2.00879 26.9817 1.65123 26.8071 1.90266C26.9497 1.95329 26.8988 2.1381 27.0548 2.18639C27.0617 2.18849 27.2074 2.11891 27.2134 2.13286C27.2219 2.15334 27.1638 2.20207 27.1671 2.21736C27.1794 2.28226 27.2631 2.30204 27.2819 2.36197C27.2891 2.38447 27.216 2.41141 27.2238 2.43741C27.2313 2.463 27.3318 2.43729 27.3019 2.49156C27.2791 2.533 27.0971 2.63783 27.0863 2.67678C27.2779 2.6023 27.2832 2.62649 27.3496 2.65012C27.3624 2.65472 27.4266 2.62163 27.4361 2.62262C27.4768 2.62659 27.426 2.66126 27.4693 2.66383C27.4797 2.66454 27.5463 2.64232 27.5586 2.64178C27.6663 2.63729 27.5302 2.73173 27.5058 2.74627C27.4142 2.80478 27.5056 2.79248 27.4721 2.82587C27.4383 2.85839 27.38 2.8396 27.3626 2.87088C27.3262 2.93469 27.3518 2.9961 27.3584 3.04854C27.3614 3.06928 27.451 3.0381 27.4535 3.04066C27.4854 3.08172 27.3934 3.14027 27.5818 3.13969C27.1074 3.23505 27.6323 3.16058 27.5436 3.23985C27.5363 3.24606 27.3097 3.27397 27.2746 3.25969C27.2395 3.24571 27.3072 3.2101 27.252 3.19227C27.2391 3.18729 27.0228 3.18691 27.0094 3.18563C26.9046 3.17105 27.2399 3.109 27.258 3.10351C27.4534 3.0461 27.2185 3.04598 27.201 3.04029C27.1198 3.00818 27.157 2.95857 27.0963 2.9333C27.0569 2.91695 26.8413 2.97605 26.843 2.95732C26.8488 2.8975 27.1347 2.76982 26.8602 2.80625C26.8016 2.81455 26.5783 2.91358 26.7422 2.80552C26.7528 2.79942 26.9027 2.70155 26.7927 2.72744C26.7789 2.73083 26.7137 2.75919 26.707 2.75887C26.6637 2.75646 26.7101 2.72123 26.6763 2.71308C26.6425 2.70511 26.5953 2.70095 26.6058 2.66881C26.6122 2.64974 26.72 2.57007 26.7446 2.54748C26.8159 2.48286 26.671 2.53856 26.7622 2.47023C26.8529 2.39989 27.0176 2.33861 27.0593 2.26492C26.9 2.35881 26.7357 2.45403 26.5757 2.54874C26.5447 2.48507 26.5532 2.3916 26.5009 2.3375C26.4944 2.33104 26.4215 2.39936 26.4128 2.39437C26.3766 2.37388 26.4086 2.30162 26.3597 2.28903C26.3214 2.27955 26.2217 2.32715 26.1817 2.32459C26.3183 2.16166 26.2306 2.17678 26.2174 2.13926C26.2125 2.12587 26.2505 2.08411 26.2556 2.06405C26.2733 1.98906 26.164 2.14192 26.138 2.15839C26.0291 2.23093 26.2951 1.90137 26.2453 1.87592C26.2422 1.87394 26.0806 2.03472 26.0697 2.04422C25.9945 2.10275 26.1126 1.97826 26.1084 1.95466C26.1008 1.9117 26.1112 1.8534 26.0434 1.88807C26.0229 1.89809 25.9278 2.00423 25.9672 1.90098C25.9723 1.88739 26.0122 1.82438 26.0125 1.81946C26.0135 1.73521 25.8941 1.93719 25.8376 1.99637C25.7816 2.05589 25.83 1.8986 25.8441 1.85348C25.8823 1.73754 25.8807 1.81431 25.8869 1.80431C25.9636 1.68549 25.9281 1.69413 25.9144 1.67399C26.015 1.46731 25.9787 1.46488 25.8997 1.65394C25.891 1.67453 25.9153 1.66265 25.9144 1.67399C25.7959 1.86675 25.7629 1.88267 25.8176 1.67625C25.8426 1.57939 25.904 1.48022 25.837 1.49747C25.8068 1.50555 25.7554 1.65548 25.7211 1.68817C25.6448 1.76356 25.6419 1.60589 25.5882 1.61358C25.5696 1.61666 25.5596 1.70421 25.5464 1.70933C25.5122 1.72349 25.5047 1.65389 25.4673 1.67868C25.4641 1.68107 25.4477 1.77043 25.439 1.76942C25.3734 1.76384 25.328 1.69558 25.2573 1.68388C25.2231 1.67812 25.1579 1.72159 25.1243 1.70947C25.0863 1.69595 25.0437 1.63582 24.9999 1.60409C24.976 1.58653 24.9527 1.57762 24.9336 1.58969C24.8986 1.61153 24.9109 1.7019 24.9001 1.76431C24.8816 1.88508 24.8184 1.67546 24.8063 1.64342C24.8058 1.64231 24.834 1.61816 24.8134 1.57336C24.7943 1.47776 24.8064 1.64298 24.8063 1.64342C24.7998 1.62228 24.7363 1.60917 24.7269 1.62832C24.7218 1.63863 24.7378 1.72311 24.7351 1.72686C24.6701 1.81427 24.6082 1.84994 24.5248 1.83176C24.5231 1.83046 24.4988 1.73746 24.4948 1.73559C24.438 1.70748 24.4439 1.82932 24.4349 1.90649C24.4254 1.98391 24.3953 1.97079 24.3118 1.82671C24.294 1.8564 24.2278 1.80606 24.1862 1.77688C24.1445 1.74774 24.2238 1.91733 24.2238 1.92143C24.2221 2.05457 24.1438 1.97543 24.0781 1.99577C24.0471 2.00485 24.0106 2.0616 23.9963 2.09738C23.9851 2.12571 23.9462 2.10007 23.9443 2.13701C23.944 2.14194 23.9977 2.20572 23.9989 2.20885C24.0408 2.3026 23.9241 2.1354 23.8972 2.11034C23.7989 2.01961 23.7415 1.97526 23.753 2.04734C23.7548 2.0645 23.9306 2.30025 23.9333 2.32105C23.9353 2.34864 23.8689 2.26689 23.8725 2.29835C23.8728 2.30096 23.9174 2.34798 23.9074 2.3535C23.8619 2.37967 23.7946 2.39561 23.7635 2.44192C23.7591 2.44797 23.8433 2.5077 23.8387 2.51716C23.8171 2.56143 23.7837 2.59871 23.7172 2.6101C23.7005 2.61279 23.6454 2.56587 23.6263 2.55587C23.5098 2.49704 23.6524 2.62205 23.6539 2.62639C23.6838 2.74641 23.5021 2.72429 23.5363 2.84439C23.5379 2.85227 23.7095 2.96268 23.5438 2.91191C23.533 2.90803 23.3619 2.85973 23.4691 2.91772C23.4759 2.92115 23.5645 2.94422 23.5496 2.95734C23.5345 2.97122 23.583 3.0161 23.4805 3.00847C23.4484 3.00537 23.2733 2.97385 23.4012 3.03763C23.4095 3.04393 23.7074 3.15903 23.4924 3.11544C23.457 3.10833 23.2322 3.04999 23.3407 3.10772C23.3619 3.11843 23.4145 3.12063 23.4428 3.14175C23.4867 3.17322 23.4199 3.18952 23.5171 3.23321C23.5342 3.24147 23.6867 3.28377 23.5665 3.27927C23.5477 3.27876 23.4717 3.26266 23.462 3.26944C23.415 3.30262 23.462 3.34908 23.4058 3.385C23.386 3.39822 23.2615 3.38236 23.227 3.39708C23.1925 3.41171 23.1589 3.44589 23.2158 3.46486C23.2728 3.48307 23.4726 3.46833 23.4884 3.49127C23.4904 3.49419 23.4923 3.49709 23.494 3.49999C23.5509 3.59182 23.4485 3.69011 23.4503 3.79199C23.4506 3.80703 23.5184 3.78181 23.5238 3.80202C23.5441 3.88025 23.6437 3.97668 23.5302 4.0971C23.4405 4.19791 23.3257 4.1632 23.299 4.22724C23.2874 4.26018 23.5092 4.1871 23.5177 4.18789C23.6057 4.20095 23.53 4.27788 23.5806 4.30345C23.5909 4.30834 23.6681 4.25386 23.6758 4.25818C23.7025 4.27198 23.6807 4.31679 23.7008 4.33378C23.7099 4.34119 23.769 4.30017 23.7697 4.31135C23.7723 4.33777 23.7591 4.3717 23.719 4.43113C23.7155 4.43673 23.6338 4.4764 23.6428 4.4943C23.6571 4.52252 23.6308 4.59682 23.7076 4.58165C23.7307 4.57704 23.8553 4.47022 23.7841 4.5612C23.7693 4.58011 23.6177 4.70649 23.7632 4.61369C23.7886 4.59969 23.9836 4.47218 23.8913 4.58937C23.8671 4.62031 23.7637 4.74524 23.7915 4.73692C23.7956 4.73524 23.8523 4.66733 23.8658 4.66854C23.9124 4.67361 23.9345 4.70638 23.981 4.70942C23.9933 4.70993 24.0412 4.63096 24.0572 4.63348C24.1008 4.63995 24.1229 4.68612 24.1376 4.73126C24.1429 4.74802 24.0919 4.80457 24.0879 4.81185C24.0264 4.93204 24.1373 4.7889 24.1472 4.78288C24.21 4.74887 24.1864 4.83406 24.2257 4.83113C24.2363 4.83035 24.2741 4.75275 24.2795 4.74697C24.3314 4.69029 24.2434 4.81813 24.2448 4.83855C24.249 4.89642 24.2856 4.90781 24.3199 4.91209C24.3324 4.9135 24.3638 4.81778 24.3741 4.81983C24.4354 4.82995 24.4863 4.86067 24.5257 4.93171C24.5332 4.94526 24.5025 5.01613 24.4994 5.03358C24.4789 5.15619 24.554 5.00377 24.5629 4.98971C24.6073 4.92668 24.5982 4.99459 24.6234 4.98793C24.743 4.95359 24.8618 5.01415 24.9687 5.04359C24.9792 5.04654 24.9896 5.0496 24.9999 5.05272C25.1225 5.08995 25.2372 5.13903 25.3581 5.09468C25.3663 5.0917 25.3354 4.99379 25.3418 4.99001C25.423 4.94626 25.5201 4.95673 25.5924 4.89388C25.5982 4.88896 25.5508 4.80382 25.5582 4.79314C25.5731 4.77065 25.6002 4.76389 25.6348 4.78125C25.6517 4.78946 25.6749 4.87093 25.6916 4.87741C25.7312 4.89244 25.7628 4.88323 25.7809 4.85482C25.7882 4.84264 25.7225 4.76616 25.7353 4.75736C25.822 4.69448 25.8867 4.62623 26.0559 4.64518C26.0673 4.64663 26.2106 4.78871 26.1976 4.74768C26.1598 4.70638 26.1141 4.65901 26.0731 4.61554C26.1657 4.48173 26.3177 4.39778 26.4082 4.2529C26.4118 4.247 26.3122 4.20689 26.3184 4.19574C26.3549 4.12975 26.3545 4.05789 26.4804 4.01988C26.4928 4.01592 26.669 4.0816 26.6504 4.04783C26.647 4.04184 26.6348 3.99738 26.5983 3.97678C26.5927 3.97387 26.5069 3.95491 26.5076 3.94342C26.5133 3.87679 26.5473 3.8173 26.6109 3.75835C26.6213 3.74874 26.7117 3.77501 26.72 3.76793C26.7783 3.71535 26.7141 3.64458 26.8015 3.59138C26.8603 3.5544 27.021 3.57523 27.1805 3.55498C27.2031 3.55198 27.2071 3.52236 27.2996 3.5214C27.5321 3.5186 27.7865 3.53892 28.0344 3.53435C28.0879 3.53331 28.0305 3.47712 28.1594 3.51067C28.1681 3.51297 28.2105 3.55494 28.254 3.56646C28.2841 3.57449 28.3784 3.56284 28.4167 3.57921C28.455 3.59591 28.3758 3.61058 28.4203 3.6379C28.4652 3.66577 28.5728 3.65854 28.5824 3.7138ZM23.9925 1.65372C23.9263 1.58761 24.0847 1.87604 24.0681 1.79523C24.0671 1.79099 23.9957 1.65697 23.9925 1.65372ZM26.7538 2.24793C26.851 2.13448 26.6657 2.2433 26.5893 2.32834C26.5114 2.41135 26.7236 2.28138 26.7538 2.24793ZM27.0286 2.50111C27.1116 2.41134 26.6946 2.62067 26.796 2.61235C26.8017 2.61191 27.0237 2.50619 27.0286 2.50111ZM27.2197 3.67559C27.2241 3.67558 27.2299 3.65425 27.2256 3.65343C27.1221 3.63538 27.1107 3.67592 27.2197 3.67559ZM27.273 2.80582C27.3294 2.7741 27.2478 2.75843 27.1783 2.79865C27.1221 2.83008 27.2026 2.84419 27.273 2.80582ZM22.7853 2.44173C22.7806 2.44001 22.7693 2.45358 22.7946 2.46505C22.8758 2.50194 22.8628 2.47065 22.7853 2.44173ZM27.3807 3.44671C27.3959 3.35478 27.7747 3.25707 27.7382 3.3816C27.7313 3.40306 27.6133 3.34156 27.5799 3.3702C27.5189 3.41906 27.7616 3.44673 27.6321 3.49907C27.6085 3.50694 27.3796 3.45105 27.3807 3.44671C27.3809 3.44676 27.3805 3.44666 27.3807 3.44671ZM23.7877 1.31537C23.7851 1.31182 23.762 1.32006 23.7637 1.32412C23.8044 1.42102 23.849 1.40552 23.7877 1.31537ZM22.3447 3.39297C22.3352 3.39388 22.3249 3.45324 22.3335 3.45537C22.5035 3.48718 22.5246 3.37539 22.3447 3.39297ZM25.3856 0.788263C25.4284 0.688143 25.4684 0.682133 25.4682 0.816073C25.4414 0.804313 25.4129 0.798643 25.3856 0.788263Z" fill="#5C2D0A"/>
<path d="M8.66768 20.5112C8.63668 20.2264 8.68618 19.8518 8.75218 19.568C8.77258 19.4796 8.84178 19.5283 8.85928 19.4678C8.89338 19.3497 8.86488 19.2367 8.90568 19.1219C8.91958 19.0838 9.02948 19.1401 9.04148 19.0993C9.10688 18.8747 9.09518 18.6594 9.14048 18.4357C9.36508 17.327 9.58548 16.2406 9.92978 15.1478C10.0427 14.7881 10.2739 14.3818 10.3614 13.9981C10.3715 13.9532 10.2687 13.9459 10.2638 13.9349C10.1915 13.7633 10.3655 13.8738 10.4208 13.7996C10.6388 13.509 10.7966 13.1476 10.9006 12.8276C10.9462 12.6883 10.7055 12.7382 10.8682 12.6512C10.8793 12.6452 10.9594 12.7233 10.9865 12.6921C11.0475 12.6212 11.1048 12.4601 11.1435 12.4021C11.2184 12.2902 11.2271 12.2713 11.2871 12.1595C11.3708 12.0061 11.5164 11.8521 11.5891 11.6813C11.6045 11.6445 11.4845 11.6347 11.5008 11.5708C11.5166 11.5074 11.6139 11.3655 11.6658 11.3312C11.7178 11.2964 11.7769 11.3624 11.7988 11.3643C11.981 11.3831 11.8945 11.0988 11.9045 11.0741C12.0798 10.639 12.4224 10.4 12.696 10.0727C12.9035 9.82415 13.109 9.53745 13.3333 9.32225C13.6011 9.06615 13.8725 8.89935 14.14 8.66385C14.1686 8.63905 14.0531 8.56915 14.0882 8.53845C14.4614 8.21205 14.8731 7.93365 15.331 7.74665C15.3771 7.72795 15.3834 7.85605 15.4327 7.84335C15.7371 7.75875 16.233 7.73455 16.167 7.22145C16.3535 7.14485 16.5831 7.05395 16.7883 7.06715C16.9201 7.07595 16.8693 7.23315 16.9755 7.12775C16.9994 7.10425 16.9182 7.02385 16.9577 6.99585C17.1247 6.87815 17.3414 6.82455 17.5088 6.69935C17.5428 6.67355 17.4975 6.58875 17.5021 6.56845C17.5421 6.40275 17.7759 6.56115 17.814 6.56515C18.1066 6.59075 18.2774 6.48105 18.5115 6.40985C18.5663 6.39335 18.463 6.29125 18.5147 6.27095C18.7846 6.16695 19.0794 6.09515 19.3639 6.08115C19.4277 6.07825 19.3991 6.19845 19.4308 6.20255C19.5699 6.21965 19.5491 6.01215 19.6837 6.02595C19.712 6.02865 19.7187 6.12325 19.7259 6.13215C19.8373 6.27165 19.8481 6.03475 19.8662 6.02545C20.0901 5.90446 20.2928 6.10635 20.5194 6.02845C20.5468 6.01885 20.461 5.91453 20.5395 5.89481C21.0522 5.76482 21.6177 5.71572 22.1495 5.75333C22.2327 5.75897 22.1839 5.85377 22.1902 5.86411C22.292 6.02555 22.3208 5.79184 22.346 5.7806C22.5454 5.6979 22.7545 5.87338 22.8753 5.58966C23.5909 5.61051 24.2882 5.50254 25.0001 5.59288C25.1758 5.61516 25.3495 5.64955 25.5206 5.70099C25.5316 5.70403 25.5098 5.81677 25.5317 5.82233C25.7943 5.89119 25.7466 5.71459 25.9282 5.50484C25.9751 5.45222 26.1036 5.71664 26.1143 5.73618C26.1554 5.80797 26.1034 5.97432 26.1175 5.98847C26.2331 6.09995 26.2373 5.54289 26.4017 5.55059C26.4067 5.55176 26.3802 5.65302 26.3934 5.66386C26.4343 5.69789 26.4784 5.65941 26.518 5.69686C26.6084 5.78357 26.6252 6.05525 26.7771 5.9072C26.7971 5.88811 26.7867 5.57078 26.9346 5.59591C26.9934 5.6059 27.2532 5.62062 27.3231 5.64756C27.3933 5.67416 27.335 5.77121 27.3398 5.77604C27.5199 5.92717 27.4419 5.97626 27.5177 6.18345C27.5922 6.39005 27.6127 5.91665 27.6569 5.86799C27.6997 5.81925 27.8327 5.94497 27.8625 5.98723C27.893 6.02945 27.8426 6.08885 27.871 6.11405C28.0579 6.27895 27.9873 5.89094 28.0638 5.82425C28.2454 5.66686 28.3249 6.03105 28.4615 6.08475C28.4987 6.09935 28.4783 6.01575 28.5137 6.01325C28.656 6.00465 28.7243 6.12545 28.8965 6.05125C28.9244 6.03905 29.0867 5.85179 29.1424 6.01865C29.1501 6.04265 29.1026 6.12315 29.1573 6.15255C29.2388 6.19645 29.3899 6.24355 29.4908 6.23335C29.5645 6.22565 29.5122 6.06865 29.5915 6.12975C29.6265 6.15705 29.5382 6.22555 29.6051 6.26995C29.6717 6.31405 29.8554 6.34865 29.9251 6.36125C29.9947 6.37345 29.9805 6.25845 29.9877 6.25245C30.0308 6.21865 30.1751 6.19735 30.1876 6.20055C30.7993 6.32925 31.2874 6.66125 31.8703 6.80115C31.9163 6.81245 31.9251 6.69335 31.9325 6.69395C32.1016 6.70305 31.8785 6.94855 31.9477 7.08275C32.0127 6.85755 32.0604 6.91965 32.1744 6.93525C32.2294 6.94275 32.2341 6.84765 32.242 6.84075C32.3671 6.74115 32.355 6.92735 32.3555 6.96655C32.3568 7.11065 32.4696 6.98575 32.4703 7.08245C32.4705 7.17825 32.3442 7.26875 32.444 7.30775C32.504 7.24185 32.5122 7.00865 32.6025 7.00745C32.9453 7.00035 33.4101 7.40825 33.618 7.54025C33.8321 7.67245 33.9104 7.69955 34.022 7.79745C34.2218 7.97605 34.2189 7.78695 34.4002 7.80905C34.5821 7.83325 34.3022 8.13045 34.2772 8.21585C34.2512 8.30075 34.319 8.23885 34.3178 8.29385C34.3162 8.34865 34.2342 8.36585 34.2799 8.41575C34.3254 8.46495 34.558 8.43485 34.6278 8.37395C34.7751 8.24385 34.8176 8.03105 34.9274 8.19065C34.9336 8.19995 34.8465 8.26755 34.8731 8.29875C35.0863 8.54355 35.3395 8.74045 35.5339 8.99305C35.5603 9.02775 35.4567 9.09385 35.4711 9.11485C35.6177 9.33505 35.6741 9.12565 35.9259 9.05415C35.7102 9.25275 35.6522 9.43665 35.7911 9.56585C35.8745 9.64425 35.9464 9.53775 36.063 9.52425C36.0982 9.52025 36.0973 9.64045 36.1495 9.60785C36.3212 9.50235 36.4178 9.28935 36.5035 9.49695C36.5069 9.50625 36.411 9.56175 36.4283 9.58825C36.5384 9.75995 36.7021 9.63475 36.8706 9.77985C37.0034 9.89415 37.1097 10.2065 37.2153 10.3699C36.9595 10.574 37.1285 10.6643 37.3524 10.5853C37.4218 10.6897 37.5133 10.7907 37.5591 10.9073C37.5749 10.9474 37.4819 10.9806 37.4767 10.9908C37.3926 11.149 37.6023 11.0657 37.6252 11.0833C37.8623 11.2775 37.8494 11.5647 38.1332 11.7209C38.1432 11.7262 38.3472 11.6239 38.2424 11.7731C38.2348 11.7829 38.0993 11.7565 38.1585 11.8731C38.2182 11.9906 38.2309 12.2633 38.4082 12.3761C38.4507 12.4023 38.6665 12.418 38.5776 12.5631C38.5653 12.5825 38.5012 12.6 38.4762 12.6314C38.3969 12.7318 38.6168 12.658 38.4693 12.8016C38.3214 12.9448 38.2459 13.1256 38.4406 13.2312C38.4464 13.2346 38.6301 13.1991 38.6502 13.2524C38.6821 13.3371 38.6973 13.4703 38.7342 13.5577C38.7519 13.5995 38.8458 13.53 38.8507 13.5365C39.026 13.8014 39.0062 14.0367 39.0714 14.3633C39.0835 14.4242 39.2833 14.5373 39.2016 14.6855C39.1114 14.8465 38.5438 14.8859 38.7513 15.1194C38.8337 15.2127 39.554 15.1685 39.2545 15.4666C39.4457 15.8435 39.3439 16.2462 39.5477 16.6274C39.5567 16.6445 39.761 16.667 39.7661 16.7098C39.7733 16.7738 39.6889 16.8246 39.6908 16.8707C39.6965 17.0644 39.8021 17.2273 39.8174 17.4167C39.8233 17.4885 39.7257 17.4774 39.732 17.5605C39.7382 17.6434 39.8698 17.6822 39.8243 17.803C39.7895 17.8946 39.546 18.0104 39.5292 18.1264C39.7803 18.1021 39.7844 18.1808 39.8653 18.3149C39.8809 18.3402 39.9653 18.3027 39.9772 18.3142C40.0275 18.3606 39.9598 18.4151 40.0135 18.459C40.0265 18.4697 40.1123 18.462 40.1277 18.4703C40.2621 18.5414 40.0812 18.6967 40.0494 18.7228C39.9294 18.8237 40.0444 18.8567 39.9995 18.9304C39.9544 19.0036 39.8837 18.9048 39.8592 18.988C39.8089 19.1624 39.836 19.3699 39.8408 19.5387C39.8433 19.6059 39.9558 19.5542 39.9588 19.5636C39.9952 19.702 39.8789 19.8489 40.1108 19.9187C39.5222 20.0378 40.1718 20.0048 40.059 20.2064C40.0498 20.2224 39.7703 20.2494 39.7275 20.1913C39.6848 20.1338 39.7695 20.04 39.7023 19.9578C39.6866 19.9381 39.4197 19.8357 39.4031 19.8214C39.2738 19.7077 39.691 19.6712 39.7137 19.6635C39.9581 19.5787 39.6682 19.4555 39.6465 19.4214C39.5477 19.2638 39.5968 19.1192 39.5225 18.9847C39.4743 18.8972 39.2002 18.9106 39.2028 18.8402C39.2108 18.6071 39.584 18.4905 39.2309 18.3045C39.1553 18.2647 38.8629 18.3442 39.0781 18.1507C39.0918 18.1388 39.2913 17.9883 39.1468 17.9336C39.1286 17.9267 39.042 17.9379 39.0332 17.9271C38.9762 17.8545 39.0384 17.7932 38.9938 17.7128C38.9493 17.6332 38.8852 17.5367 38.8996 17.4341C38.9082 17.3725 39.057 17.2715 39.0918 17.2366C39.1922 17.1378 38.9922 17.0834 39.1207 17.0109C39.2497 16.937 39.476 16.9997 39.5417 16.8512C39.3173 16.8858 39.0859 16.9154 38.8599 16.9478C38.8178 16.6659 38.8323 16.3675 38.759 16.093C38.7497 16.0588 38.6389 16.1217 38.6257 16.0855C38.5702 15.9319 38.6209 15.7741 38.5453 15.6222C38.4863 15.5046 38.3252 15.4064 38.2563 15.2862C38.483 15.1348 38.3405 14.9675 38.319 14.8248C38.3114 14.7746 38.3783 14.7563 38.3886 14.7151C38.4252 14.5597 38.2274 14.6926 38.1814 14.669C37.9842 14.5685 38.4705 14.3845 38.3925 14.2078C38.3884 14.1978 38.0863 14.1805 38.0644 14.1719C37.9219 14.1141 38.1483 14.1211 38.1435 14.052C38.1343 13.9253 38.1628 13.8185 38.0326 13.7174C37.9941 13.6876 37.797 13.6651 37.887 13.5386C37.8987 13.5219 37.9848 13.4902 37.9863 13.4802C38.0049 13.3023 37.7403 13.4165 37.6154 13.3786C37.4907 13.3411 37.6113 13.135 37.6499 13.0844C37.7506 12.9538 37.7313 13.1063 37.746 13.1036C37.9218 13.0701 37.8512 12.9923 37.8298 12.917C38.0772 12.781 38.0122 12.6904 37.8064 12.8396C37.784 12.8559 37.8344 12.8974 37.8298 12.917C37.5516 12.9794 37.4713 12.8993 37.6372 12.6613C37.7149 12.5501 37.8675 12.5336 37.731 12.3929C37.6689 12.3296 37.5157 12.4533 37.4334 12.4155C37.2466 12.3313 37.2894 12.0517 37.1705 11.9195C37.1278 11.8722 37.0715 11.9812 37.0394 11.9512C36.954 11.8724 36.9656 11.7462 36.8671 11.6754C36.8581 11.6692 36.7808 11.753 36.7597 11.725C36.5977 11.5151 36.5184 11.2902 36.3443 11.0726C36.2605 10.9673 36.0597 10.8273 35.976 10.7174C35.833 10.5271 35.7398 10.2016 35.5612 10.087C35.4459 10.0126 35.3914 10.1146 35.2984 10.1318C35.1202 10.1668 35.1504 9.84345 35.1554 9.79455C35.1557 9.79285 35.2602 9.84885 35.2511 9.76525C35.3017 9.65155 35.1566 9.79495 35.1554 9.79455C35.1601 9.76305 34.9986 9.59475 34.9489 9.58275C34.9221 9.57605 34.8668 9.66695 34.8542 9.66195C34.5565 9.54345 34.2991 9.38815 34.0693 9.17605C34.066 9.17135 34.1381 9.07765 34.1293 9.06755C34.0071 8.92385 33.8299 8.98315 33.6595 8.97995C33.4894 8.97715 33.4061 8.89665 33.4277 8.67655C33.3176 8.64375 33.2157 8.48755 33.1572 8.39625C33.0985 8.30485 32.9827 8.50385 32.9736 8.50425C32.6833 8.52105 32.6041 8.33855 32.3713 8.21375C32.2606 8.15365 32.0137 8.08765 31.8765 8.06195C31.7695 8.04215 31.7275 7.96895 31.6219 7.96695C31.6077 7.96665 31.5854 8.06735 31.5802 8.06965C31.4349 8.14705 31.5693 7.93005 31.5627 7.88015C31.5381 7.69915 31.5155 7.59925 31.3515 7.62465C31.3131 7.63015 31.1107 7.94235 31.0484 7.94455C30.967 7.94675 31.0335 7.83245 30.9465 7.83805C30.939 7.83845 30.9169 7.91485 30.8701 7.89675C30.651 7.81385 30.4183 7.70095 30.1799 7.64895C30.1473 7.64155 30.1579 7.77435 30.1106 7.76575C29.8869 7.72515 29.6513 7.66705 29.4473 7.56495C29.397 7.53935 29.448 7.45965 29.4417 7.43155C29.4013 7.26125 29.2537 7.46755 29.2364 7.46875C28.822 7.50265 28.5413 7.24655 28.1183 7.29095C28.0947 7.29355 27.8932 7.51745 27.8406 7.29795C27.8372 7.28335 27.7842 7.05875 27.6989 7.19875C27.6937 7.20745 27.7297 7.32375 27.6468 7.30325C27.5618 7.28265 27.425 7.34375 27.3216 7.21105C27.2893 7.16925 27.2214 6.94575 27.0971 7.10865C27.0883 7.11995 26.8906 7.49565 26.8496 7.22315C26.8431 7.17835 26.8727 6.89455 26.7308 7.03145C26.7043 7.05815 26.7448 7.12435 26.6775 7.15975C26.5746 7.21445 26.4462 7.13065 26.3161 7.25125C26.2932 7.27255 26.1933 7.46135 26.1258 7.31175C26.1151 7.28825 26.1412 7.19415 26.1023 7.18195C25.9151 7.12325 25.7227 7.18115 25.5354 7.11185C25.469 7.08745 25.506 6.93435 25.4363 6.89205C25.3666 6.84975 25.2236 6.80865 25.1484 6.87855C25.0736 6.94855 25.1538 7.19375 25.0428 7.21305C25.0286 7.21555 25.0143 7.21785 25.0001 7.21995C24.5317 7.28995 24.0836 7.16475 23.6181 7.16825C23.5481 7.16885 23.6104 7.25325 23.5082 7.26055C23.1294 7.28635 22.4944 7.42425 22.1421 7.28025C21.8617 7.16375 22.1794 7.01085 21.97 6.97525C21.8682 6.95865 21.8013 7.25495 21.78 7.26695C21.5709 7.38735 21.3883 7.28755 21.1931 7.35915C21.1528 7.37405 21.2127 7.48105 21.1783 7.49245C21.0609 7.53255 20.9301 7.50365 20.8143 7.53525C20.7631 7.54955 20.7893 7.63435 20.7406 7.63685C20.6243 7.64405 20.5178 7.62815 20.3911 7.57085C20.3795 7.56565 20.424 7.44385 20.3397 7.45785C20.2046 7.48065 20.0165 7.44025 19.8803 7.56075C19.8402 7.59685 19.8878 7.79245 19.7558 7.68255C19.7283 7.65975 19.693 7.41865 19.6322 7.65085C19.6202 7.68975 19.5108 8.01155 19.3668 7.86425C19.3292 7.82525 19.2103 7.65365 19.1643 7.69985C19.1584 7.70685 19.2187 7.80175 19.1769 7.82525C19.0288 7.90665 18.8656 7.94665 18.7162 8.03325C18.6766 8.05655 18.776 8.14095 18.7163 8.17215C18.5522 8.25825 18.3336 8.30865 18.1566 8.34105C18.0906 8.35315 18.0986 8.25015 18.0904 8.24255C17.957 8.11885 17.9975 8.34195 17.9792 8.36335C17.863 8.49505 17.7129 8.44665 17.5929 8.53105C17.5599 8.55415 17.6292 8.63865 17.6259 8.65055C17.5894 8.76845 17.5662 8.57035 17.5097 8.57335C17.351 8.58135 17.2069 8.66085 17.0827 8.73975C17.0372 8.76885 17.1468 8.85035 17.1058 8.87505C16.8611 9.02515 16.6042 9.15775 16.332 9.24815C16.2808 9.26495 16.2585 9.16755 16.2378 9.15505C16.0923 9.06815 16.1096 9.30225 16.1 9.33215C16.0535 9.47005 15.9715 9.42495 15.8959 9.49615C15.5324 9.84025 15.0349 10.1804 14.6773 10.4835C14.2147 10.875 13.8333 11.183 13.5054 11.6716C13.4846 11.7027 13.6084 11.7457 13.592 11.7732C13.3775 12.1235 13.1198 12.4416 12.9515 12.8222C12.9375 12.8534 13.0653 12.8679 13.0467 12.9194C13.0091 13.0258 12.9386 13.1465 12.8545 13.2293C12.8135 13.2701 12.7553 13.1583 12.7158 13.2008C12.6235 13.2999 12.5548 13.424 12.5158 13.5557C12.4998 13.6111 12.6459 13.5837 12.6171 13.6509C12.4225 14.1121 12.2676 14.5817 11.9619 15.0277C11.941 15.0582 11.6953 15.0149 11.7181 15.1029C11.7821 15.1284 11.8595 15.1515 11.929 15.1751C11.7504 15.9013 11.5044 16.6199 11.3723 17.3743C11.3667 17.4064 11.5049 17.3713 11.4949 17.4332C11.437 17.7951 11.4302 18.138 11.2626 18.5004C11.2463 18.5356 11.0186 18.4938 11.0429 18.6061C11.0472 18.6258 11.063 18.7933 11.1094 18.8403C11.1165 18.8467 11.2262 18.8257 11.2249 18.879C11.2153 19.1914 11.1709 19.5077 11.0916 19.8166C11.0787 19.8665 10.9665 19.8079 10.9562 19.8435C10.8843 20.1011 10.9643 20.3734 10.857 20.6176C10.7849 20.7812 10.5876 20.7183 10.3918 20.8058C10.3642 20.8182 10.3594 20.9225 10.2459 20.9278C9.96058 20.9413 9.64828 20.8887 9.34408 20.909C9.27848 20.9133 9.34898 21.0589 9.19068 20.9726C9.18008 20.9666 9.12778 20.8608 9.07428 20.8344C9.03728 20.816 8.92168 20.8482 8.87438 20.8107C8.82708 20.7732 8.92408 20.7331 8.86888 20.6712C8.81308 20.6091 8.68138 20.6345 8.66768 20.5112ZM32.8807 7.98845C32.8459 7.85025 32.6639 8.21095 32.7912 8.16395C32.7975 8.16125 32.8825 7.99535 32.8807 7.98845ZM39.1288 16.3092C39.2783 16.1557 39.0049 16.1335 38.8883 16.2435C38.7714 16.3522 39.0833 16.3554 39.1288 16.3092ZM39.4721 17.5059C39.5905 17.3445 39.0211 17.4086 39.1572 17.539C39.1649 17.5466 39.4652 17.5152 39.4721 17.5059ZM10.342 20.3936C10.3366 20.3947 10.3299 20.4686 10.3352 20.4705C10.4627 20.512 10.4759 20.365 10.342 20.3936ZM39.7531 18.7157C39.8265 18.6649 39.7259 18.5474 39.635 18.6104C39.5619 18.6606 39.6618 18.7783 39.7531 18.7157ZM28.4381 6.28055C28.4375 6.27435 28.3856 6.26165 28.3821 6.29555C28.3708 6.40455 28.4478 6.38405 28.4381 6.28055ZM39.854 20.8259C39.8733 20.5125 40.3418 20.3116 40.2937 20.6582C40.2849 20.7208 40.1412 20.5253 40.0996 20.6054C40.0238 20.7508 40.3214 20.8463 40.1624 20.9971C40.1333 21.0238 39.8526 20.8439 39.854 20.8259C39.8542 20.8261 39.8538 20.8257 39.854 20.8259ZM33.0395 7.52715C33.0401 7.52155 32.9741 7.48525 32.9702 7.48935C32.8801 7.58885 33.0116 7.66125 33.0395 7.52715ZM25.3175 5.80854C25.3136 5.797 25.138 5.78503 25.1321 5.79561C25.0402 6.00455 25.3926 6.02925 25.3175 5.80854ZM37.2104 10.3778C37.3633 10.3612 37.4395 10.4334 37.3524 10.5853C37.3082 10.5144 37.257 10.4476 37.2104 10.3778Z" fill="#5C2D0A"/>
<path d="M6.38102 19.5153C6.60522 19.4762 6.89902 19.518 7.12232 19.5753C7.19232 19.5931 7.15682 19.6726 7.20512 19.6885C7.29962 19.7194 7.38762 19.6804 7.48102 19.7172C7.51202 19.7298 7.47342 19.8558 7.50592 19.8661C7.68372 19.9217 7.85192 19.8897 8.03202 19.9164C8.91922 20.0485 9.79132 20.0958 10.6893 20.1532C10.9854 20.172 11.3454 20.2863 11.6512 20.2363C11.6869 20.2304 11.6657 20.1198 11.6725 20.1107C11.779 19.9712 11.7436 20.1944 11.8131 20.2241C12.0892 20.3411 12.3963 20.3513 12.662 20.3086C12.775 20.2902 12.6617 20.0706 12.7755 20.1938C12.7834 20.2022 12.7547 20.3196 12.7857 20.3321C12.856 20.3602 12.9894 20.3393 13.0439 20.3486C13.1489 20.3671 13.1663 20.3659 13.2656 20.3672C13.4014 20.3701 13.5629 20.4284 13.7086 20.4018C13.7397 20.3958 13.6985 20.2755 13.7481 20.255C13.7978 20.2346 13.9291 20.2448 13.9733 20.2731C14.0176 20.3015 13.9988 20.3961 14.0066 20.4178C14.0711 20.6008 14.223 20.3473 14.2425 20.3411C14.5988 20.2343 14.9044 20.3786 15.2389 20.3782C15.4928 20.3776 15.7643 20.3299 16.006 20.3365C16.2938 20.3447 16.5378 20.4099 16.8174 20.3987C16.8469 20.3977 16.8124 20.2562 16.8484 20.2546C17.2314 20.2382 17.6117 20.2536 17.993 20.3491C18.0312 20.3588 17.9819 20.4831 18.0201 20.5002C18.254 20.6023 18.6242 20.8475 18.7631 20.3066C18.9215 20.3278 19.1139 20.3496 19.2556 20.4586C19.347 20.5288 19.2583 20.6641 19.3705 20.6064C19.3959 20.5935 19.3629 20.475 19.4009 20.4647C19.5608 20.4213 19.7354 20.4598 19.8936 20.3986C19.9258 20.3858 19.917 20.2796 19.9261 20.2605C20.0027 20.1056 20.1302 20.3616 20.158 20.3802C20.3697 20.519 20.5243 20.4644 20.7215 20.4678C20.7673 20.4686 20.7132 20.326 20.7573 20.3216C20.9856 20.3012 21.2222 20.3135 21.4459 20.3768C21.4956 20.3912 21.4499 20.5127 21.4737 20.5258C21.5785 20.5821 21.6017 20.3526 21.7022 20.4022C21.7234 20.4124 21.7115 20.5164 21.7154 20.5278C21.7759 20.7072 21.8284 20.4531 21.844 20.4474C22.0408 20.3708 22.1667 20.6361 22.3568 20.5985C22.3796 20.5937 22.3283 20.4621 22.3922 20.4568C22.8183 20.4204 23.2689 20.4566 23.6906 20.5619C23.7562 20.5781 23.7094 20.677 23.7135 20.6891C23.7807 20.8796 23.8243 20.6244 23.8456 20.6148C24.0143 20.5456 24.1719 20.7596 24.2865 20.4557C25.0008 20.5612 25.7118 20.3905 26.4203 20.6628C26.4293 20.6659 26.4131 20.7916 26.4311 20.7974C26.6475 20.8679 26.6059 20.6726 26.7491 20.4337C26.7852 20.3737 26.8949 20.6621 26.9046 20.6833C26.9399 20.7612 26.9033 20.9482 26.9151 20.9632C27.0131 21.0817 26.9971 20.4634 27.1293 20.4632C27.1335 20.4642 27.1161 20.578 27.1272 20.5893C27.1617 20.6249 27.1959 20.5797 27.2296 20.6188C27.3068 20.7095 27.3343 21.0099 27.4522 20.8351C27.4671 20.8124 27.4443 20.4616 27.5624 20.4782C27.6094 20.4851 27.8177 20.4791 27.8761 20.5018C27.9344 20.5245 27.8944 20.6376 27.8985 20.6424C28.0556 20.7919 27.9961 20.8539 28.0748 21.0751C28.1535 21.2956 28.1317 20.7698 28.1637 20.7111C28.1959 20.6526 28.3111 20.7759 28.3394 20.8188C28.3677 20.8617 28.3324 20.9335 28.3575 20.9578C28.5243 21.1163 28.4307 20.6968 28.4857 20.6133C28.6153 20.4157 28.7162 20.8057 28.8348 20.8439C28.8669 20.8542 28.8407 20.7654 28.8693 20.7571C28.9825 20.7254 29.0506 20.847 29.1794 20.7355C29.2004 20.7173 29.3045 20.4829 29.3719 20.6549C29.3815 20.6797 29.3544 20.7769 29.4026 20.7986C29.4747 20.8313 29.6045 20.8525 29.682 20.8201C29.7392 20.796 29.6736 20.6359 29.7456 20.6857C29.7776 20.7079 29.7183 20.8015 29.7784 20.8354C29.8382 20.8693 29.9911 20.8652 30.0493 20.862C30.1073 20.8587 30.0755 20.7372 30.0802 20.7291C30.1086 20.6822 30.2201 20.6236 30.2299 20.6238C30.7267 20.6089 31.1847 20.8137 31.6684 20.7459C31.7063 20.7408 31.6811 20.6127 31.6868 20.6106C31.8168 20.5569 31.7143 20.8974 31.8051 21.0114C31.792 20.7515 31.8456 20.7986 31.9371 20.7701C31.9812 20.7561 31.9572 20.6555 31.9612 20.6452C32.0266 20.4923 32.0721 20.6898 32.0839 20.7302C32.1272 20.8787 32.1743 20.7032 32.2038 20.8025C32.2333 20.901 32.1655 21.0472 32.2532 21.0453C32.2779 20.9522 32.2127 20.7091 32.2793 20.6697C32.5308 20.5207 33.0002 20.7114 33.2023 20.7313C33.4041 20.7511 33.4693 20.7339 33.5869 20.7675C33.7993 20.8283 33.7214 20.6479 33.8533 20.5654C33.9855 20.4828 33.9213 20.9266 33.9403 21.022C33.9589 21.1174 33.9793 21.0192 34.0025 21.0716C34.0257 21.1241 33.9756 21.1889 34.03 21.2086C34.0844 21.2283 34.2333 21.0586 34.2526 20.9589C34.2934 20.7475 34.2263 20.5257 34.3704 20.6036C34.3787 20.6083 34.3518 20.725 34.3835 20.7367C34.6356 20.8266 34.8974 20.8322 35.1491 20.9116C35.1837 20.9227 35.1527 21.0525 35.1729 21.0605C35.3827 21.1435 35.3077 20.9246 35.4227 20.6814C35.3968 21.0051 35.4604 21.203 35.6196 21.2049C35.7154 21.2062 35.6989 21.0649 35.7608 20.9653C35.7794 20.9352 35.8471 21.0323 35.8594 20.9658C35.8998 20.7485 35.836 20.5053 36.0002 20.6022C36.0074 20.6068 35.9845 20.7257 36.0094 20.7329C36.1702 20.78 36.1895 20.5528 36.3634 20.5253C36.4997 20.5037 36.7421 20.6422 36.8973 20.6648C36.894 21.0286 37.0406 20.9453 37.1001 20.6945C37.2008 20.7047 37.3096 20.6905 37.4069 20.7252C37.4404 20.737 37.4184 20.8424 37.4226 20.8538C37.4874 21.0323 37.5312 20.7882 37.5529 20.7787C37.7886 20.6857 37.9805 20.8706 38.2054 20.6899C38.2134 20.6834 38.2263 20.4306 38.2864 20.6152C38.2903 20.6279 38.2161 20.7429 38.3218 20.7518C38.4276 20.7607 38.6271 20.8962 38.774 20.779C38.8095 20.7509 38.8994 20.5457 38.9716 20.706C38.9812 20.7278 38.9706 20.8002 38.9845 20.8406C39.0294 20.9691 39.0539 20.7136 39.1066 20.9307C39.1593 21.1477 39.269 21.3102 39.4171 21.1605C39.4218 21.1561 39.4569 20.9536 39.5035 20.9568C39.5778 20.9621 39.6834 21.0043 39.761 21.003C39.7982 21.0023 39.7744 20.8766 39.7809 20.8743C40.0308 20.8038 40.2087 20.9159 40.4765 20.9645C40.5256 20.9737 40.6667 20.8023 40.7617 20.9378C40.8661 21.0862 40.7588 21.7034 40.9987 21.5563C41.0954 21.4975 41.2179 20.7145 41.3918 21.1202C41.7289 21.0196 42.0407 21.2273 42.3788 21.0837C42.3941 21.0774 42.4421 20.8588 42.4779 20.8618C42.531 20.8666 42.5601 20.9688 42.598 20.9755C42.7567 21.0063 42.902 20.9189 43.0551 20.9325C43.1132 20.9374 43.0929 21.043 43.1622 21.0489C43.2315 21.0547 43.2777 20.9157 43.3716 20.9828C43.4425 21.034 43.5134 21.3183 43.6075 21.3514C43.6111 21.071 43.6757 21.0768 43.7906 21.0028C43.8127 20.9884 43.789 20.8908 43.7994 20.879C43.842 20.8287 43.8813 20.9096 43.9217 20.8549C43.9315 20.8417 43.9319 20.7459 43.94 20.7298C44.0082 20.5888 44.1207 20.8042 44.14 20.8417C44.2141 20.9841 44.2486 20.8596 44.3054 20.9156C44.3621 20.9717 44.2774 21.0418 44.3436 21.0759C44.4808 21.1462 44.6572 21.1308 44.7966 21.1352C44.8522 21.1363 44.8143 21.0085 44.8222 21.0057C44.9373 20.9733 45.0536 21.1093 45.1173 20.8547C45.1971 21.513 45.1867 20.7908 45.3511 20.9226C45.3641 20.9333 45.3805 21.2446 45.3308 21.2903C45.2811 21.3359 45.2057 21.2386 45.1367 21.3099C45.1204 21.3266 45.0268 21.6183 45.014 21.636C44.914 21.7741 44.8999 21.3089 44.8946 21.2833C44.8346 21.0076 44.7202 21.3218 44.6901 21.3436C44.5523 21.4431 44.4353 21.3776 44.3201 21.4487C44.2447 21.4946 44.2373 21.7993 44.1782 21.79C43.9815 21.7591 43.9128 21.334 43.7274 21.7026C43.6877 21.7812 43.7272 22.1143 43.5848 21.8524C43.5758 21.8359 43.4701 21.5963 43.409 21.7479C43.4013 21.767 43.4015 21.864 43.3914 21.8722C43.3236 21.9249 43.2784 21.8476 43.2045 21.8846C43.1306 21.9217 43.0418 21.9769 42.9575 21.944C42.9066 21.9243 42.8414 21.7434 42.8171 21.6991C42.7484 21.5716 42.6747 21.7807 42.6321 21.6263C42.5892 21.471 42.6731 21.2353 42.5606 21.135C42.5564 21.3872 42.5468 21.646 42.5401 21.8996C42.2935 21.8908 42.0508 21.8092 41.8033 21.8204C41.7726 21.822 41.804 21.9576 41.7711 21.9628C41.6323 21.9844 41.5111 21.8877 41.3672 21.9262C41.2558 21.9565 41.1336 22.1001 41.0172 22.1362C40.946 21.8476 40.7731 21.9456 40.6476 21.9192C40.6036 21.9101 40.6065 21.8331 40.5753 21.8079C40.4572 21.7149 40.5125 21.9699 40.4802 22.0101C40.3414 22.1813 40.3295 21.6041 40.1659 21.6184C40.1572 21.619 40.0512 21.9266 40.0366 21.9458C39.9439 22.0707 40.0213 21.8387 39.9632 21.816C39.8572 21.7744 39.7836 21.7009 39.6593 21.7911C39.623 21.8178 39.536 22.0095 39.4656 21.8612C39.4564 21.8418 39.4615 21.7401 39.454 21.7341C39.3191 21.6348 39.3155 21.9544 39.2384 22.0626C39.1613 22.1708 39.0422 21.9502 39.0179 21.8866C38.9545 21.7222 39.0665 21.8164 39.07 21.8002C39.1103 21.6082 39.0234 21.6412 38.9571 21.625C38.9474 21.3117 38.8546 21.3305 38.8882 21.6094C38.8921 21.6399 38.9437 21.6107 38.9571 21.625C38.8988 21.9324 38.7968 21.9718 38.6841 21.6845C38.6313 21.5499 38.6812 21.3929 38.521 21.4503C38.4482 21.4762 38.4763 21.692 38.4122 21.7508C38.2656 21.885 38.075 21.6837 37.9239 21.7154C37.869 21.727 37.9225 21.845 37.885 21.857C37.7855 21.889 37.6977 21.8004 37.5978 21.8458C37.5888 21.8501 37.6109 21.9737 37.5798 21.9753C37.3442 21.9896 37.1391 21.9104 36.8932 21.9083C36.7743 21.9072 36.5618 21.9754 36.4387 21.9617C36.2254 21.9387 35.9629 21.7589 35.7806 21.8026C35.6617 21.8306 35.6878 21.9542 35.6369 22.0384C35.5386 22.2017 35.3646 21.9092 35.3412 21.8639C35.3405 21.8624 35.4428 21.8333 35.3882 21.7698C35.3564 21.6376 35.3423 21.8634 35.3412 21.8639C35.3258 21.8347 35.1214 21.8066 35.0809 21.8302C35.0588 21.8432 35.0711 21.9603 35.0597 21.9648C34.7864 22.0697 34.5127 22.0994 34.2355 22.0447C34.2306 22.0423 34.238 21.9113 34.2265 21.9073C34.0661 21.8491 33.9633 22.0094 33.831 22.1045C33.6987 22.1997 33.5938 22.1678 33.5155 21.9429C33.4156 21.9712 33.2724 21.8717 33.19 21.8114C33.1076 21.751 33.0961 22.0061 33.0888 22.0112C32.8626 22.1726 32.7319 22.0266 32.4972 22.0038C32.3857 21.9926 32.1644 22.0296 32.0436 22.0575C31.9481 22.08 31.8906 22.0202 31.8027 22.0584C31.7908 22.0635 31.8028 22.1771 31.7991 22.1814C31.701 22.3173 31.7482 22.0397 31.7279 21.9901C31.6544 21.8098 31.609 21.7137 31.4833 21.7986C31.4543 21.818 31.3698 22.2178 31.317 22.2411C31.2482 22.2708 31.2742 22.1275 31.2022 22.1622C31.1961 22.1651 31.1973 22.2535 31.1529 22.2496C30.9468 22.2326 30.722 22.1812 30.5078 22.1901C30.4785 22.1909 30.516 22.3311 30.4738 22.3347C30.2754 22.3513 30.0579 22.3461 29.8646 22.2805C29.8171 22.2639 29.8469 22.1657 29.8366 22.1366C29.7732 21.9602 29.6832 22.2165 29.6684 22.2214C29.3145 22.3445 29.0437 22.1126 28.683 22.223C28.6634 22.2295 28.5122 22.5042 28.4448 22.2686C28.4402 22.2529 28.3735 22.0119 28.3145 22.1767C28.3108 22.187 28.3524 22.3111 28.2799 22.2984C28.2073 22.2858 28.0906 22.3687 27.9908 22.2323C27.9593 22.1894 27.8847 21.9489 27.7905 22.1406C27.7844 22.154 27.639 22.5874 27.5871 22.2884C27.5787 22.2392 27.5875 21.9227 27.4751 22.0849C27.4536 22.1164 27.4926 22.187 27.436 22.2311C27.3494 22.299 27.2345 22.2142 27.128 22.3552C27.1094 22.3802 27.0303 22.595 26.9668 22.4319C26.9569 22.4064 26.9758 22.3008 26.9423 22.2889C26.7829 22.2322 26.6161 22.3029 26.4543 22.2298C26.397 22.2041 26.4263 22.0333 26.3666 21.9875C26.3068 21.9418 26.1864 21.8978 26.1239 21.9758C26.0614 22.0539 26.1297 22.3261 26.036 22.3479C25.6288 22.4425 25.2255 22.2828 24.8188 22.2594C24.7585 22.256 24.8085 22.3534 24.7197 22.3552C24.392 22.3625 23.8263 22.4538 23.542 22.2468C23.3142 22.081 23.6009 21.9548 23.4268 21.8874C23.3428 21.8552 23.2519 22.1717 23.2316 22.1816C23.0335 22.2828 22.8959 22.1426 22.7176 22.1857C22.6807 22.1946 22.7168 22.3228 22.6855 22.329C22.5785 22.3513 22.466 22.294 22.3637 22.3045C22.3178 22.3095 22.3263 22.4075 22.284 22.3999C22.183 22.3829 22.0937 22.3417 21.9952 22.2499C21.9862 22.2416 22.0468 22.1197 21.972 22.1152C21.851 22.1082 21.7009 22.0176 21.5617 22.1111C21.5204 22.1393 21.5188 22.3632 21.43 22.2085C21.4114 22.1762 21.4351 21.9074 21.3317 22.1397C21.3144 22.1783 21.1407 22.4916 21.0554 22.2897C21.0329 22.2365 20.9755 22.0165 20.9259 22.0511C20.9191 22.0566 20.9461 22.1769 20.905 22.1886C20.7599 22.2278 20.6079 22.215 20.4589 22.2527C20.4192 22.263 20.4784 22.3874 20.4191 22.3988C20.256 22.4302 20.0525 22.3986 19.893 22.3596C19.8342 22.345 19.8748 22.2419 19.8706 22.2307C19.8018 22.0482 19.7611 22.2945 19.7383 22.3089C19.5963 22.3949 19.4881 22.2792 19.3573 22.3098C19.3211 22.3179 19.3467 22.4354 19.3396 22.4458C19.265 22.5482 19.3205 22.3373 19.2733 22.314C19.1411 22.2482 18.9937 22.2576 18.86 22.2726C18.8109 22.2783 18.8661 22.4145 18.822 22.418C18.5611 22.4415 18.2899 22.4285 18.0352 22.3534C17.9873 22.339 18.0175 22.2341 18.0075 22.2102C17.9386 22.0426 17.8377 22.2712 17.8144 22.293C17.7088 22.3924 17.6678 22.2996 17.5746 22.3169C17.119 22.4031 16.5565 22.3417 16.1265 22.3038C15.5661 22.2549 15.1313 22.1552 14.597 22.1811C14.563 22.1826 14.5972 22.3221 14.568 22.3252C14.19 22.3588 13.8179 22.3043 13.4391 22.3446C13.408 22.3477 13.4528 22.4799 13.403 22.4892C13.3006 22.5094 13.171 22.5022 13.0676 22.4599C13.0171 22.4396 13.0848 22.3261 13.034 22.308C12.9157 22.2654 12.789 22.256 12.6675 22.2772C12.6158 22.2865 12.6938 22.4218 12.6266 22.4233C12.1689 22.4367 11.7193 22.46 11.2568 22.2849C11.2251 22.2729 11.1973 21.998 11.1299 22.0507C11.1248 22.127 11.125 22.2167 11.1228 22.2983C10.4565 22.3422 9.79702 22.2469 9.12882 22.2322C9.10062 22.2316 9.14932 22.3772 9.09482 22.3768C8.77912 22.3747 8.47262 22.415 8.14972 22.2703C8.11762 22.2561 8.13412 21.9999 8.03962 22.0386C8.02302 22.0457 7.88082 22.0799 7.84402 22.1355C7.83902 22.1439 7.86502 22.2635 7.81912 22.267C7.55292 22.2851 7.27382 22.2578 7.00802 22.1847C6.96512 22.1727 7.01082 22.0454 6.98022 22.0357C6.76352 21.9681 6.52772 22.0649 6.32062 21.9493C6.18192 21.8714 6.23332 21.6513 6.15962 21.4346C6.14922 21.404 6.06332 21.3991 6.05892 21.2731C6.04752 20.956 6.08912 20.6089 6.07202 20.2709C6.06842 20.1981 5.95342 20.2765 6.02152 20.1006C6.02632 20.0889 6.10962 20.0305 6.13012 19.9708C6.14442 19.9296 6.11872 19.8013 6.14782 19.7485C6.17702 19.6958 6.20912 19.8033 6.25742 19.7412C6.30572 19.6784 6.28452 19.5325 6.38102 19.5153ZM32.8189 21.5417C32.7426 21.4192 32.7313 21.8678 32.8139 21.7605C32.8179 21.7548 32.8228 21.5477 32.8189 21.5417ZM42.0522 21.4708C41.9524 21.2729 41.8841 21.5639 41.9545 21.7167C42.0249 21.8694 42.0825 21.5308 42.0522 21.4708ZM43.0867 21.3263C42.9701 21.1703 42.9517 21.8065 43.0766 21.6779C43.0839 21.6706 43.0935 21.3354 43.0867 21.3263ZM6.50122 21.3729C6.50022 21.3669 6.43852 21.3611 6.43702 21.367C6.40412 21.5095 6.52752 21.521 6.50122 21.3729ZM44.1133 21.1691C44.0769 21.083 43.9721 21.1823 44.0173 21.2894C44.0538 21.3754 44.1586 21.2761 44.1133 21.1691ZM28.838 21.0629C28.8368 21.0562 28.7926 21.0502 28.7935 21.0879C28.7965 21.2097 28.858 21.1753 28.838 21.0629ZM45.8582 21.1617C45.6004 21.1378 45.4441 20.6123 45.7248 20.6716C45.7756 20.6823 45.6152 20.8391 45.6799 20.8865C45.7983 20.9728 45.877 20.6429 45.9978 20.8197C46.0197 20.8521 45.8734 21.1635 45.8582 21.1617C45.8584 21.1614 45.858 21.162 45.8582 21.1617ZM32.7749 21.0028C32.7734 20.9969 32.7122 20.9912 32.7107 20.9971C32.6775 21.1396 32.8009 21.151 32.7749 21.0028ZM26.2564 20.7855C26.253 20.7728 26.1109 20.761 26.1062 20.7726C26.0321 21.0055 26.3194 21.0301 26.2564 20.7855ZM36.8997 20.6745C36.9665 20.5312 37.0468 20.5145 37.1001 20.6945C37.0336 20.6849 36.9665 20.6833 36.8997 20.6745Z" fill="#5C2D0A"/>
<path d="M0.341797 38.6611C0.309245 38.6286 0.292969 38.5472 0.292969 38.417C0.292969 38.2786 0.309245 38.2095 0.341797 38.2095C0.406901 38.2095 0.500488 38.1891 0.622559 38.1484C0.744629 38.1159 0.858561 38.0752 0.964355 38.0264C1.07015 37.9775 1.12712 37.9368 1.13525 37.9043C1.19222 37.6764 1.2207 37.3672 1.2207 36.9766V32.6919C1.2207 32.2362 1.14746 31.931 1.00098 31.7764C0.935872 31.695 0.846354 31.638 0.732422 31.6055C0.626628 31.5729 0.53304 31.5526 0.45166 31.5444C0.37028 31.5282 0.32959 31.5119 0.32959 31.4956C0.32959 31.2108 0.349935 31.0684 0.390625 31.0684C0.642904 31.0684 0.931803 31.0399 1.25732 30.9829C1.58285 30.9178 1.94906 30.8283 2.35596 30.7144C2.6001 30.633 2.73438 30.5923 2.75879 30.5923C2.80762 30.5923 2.83203 30.6452 2.83203 30.751C2.83203 30.7754 2.82796 30.8079 2.81982 30.8486C2.81982 30.8812 2.81576 30.9219 2.80762 30.9707C3.15755 30.694 3.5319 30.5557 3.93066 30.5557C4.4515 30.5557 4.9113 30.6818 5.31006 30.9341C5.71696 31.1782 6.03434 31.5037 6.26221 31.9106C6.49821 32.3175 6.61621 32.757 6.61621 33.229C6.61621 33.8312 6.48193 34.348 6.21338 34.7793C5.95296 35.2025 5.59082 35.528 5.12695 35.7559C4.67122 35.9837 4.15039 36.0977 3.56445 36.0977C3.36914 36.0977 3.20638 36.0773 3.07617 36.0366C2.94596 36.0041 2.87272 35.9878 2.85645 35.9878C2.82389 35.9878 2.80762 36.0529 2.80762 36.1831V36.7935C2.80762 37.3306 2.8361 37.7008 2.89307 37.9043C2.90934 37.9368 2.97038 37.9775 3.07617 38.0264C3.18197 38.0752 3.29183 38.1159 3.40576 38.1484C3.52783 38.1891 3.61328 38.2095 3.66211 38.2095C3.67839 38.2095 3.69059 38.242 3.69873 38.3071C3.70687 38.3722 3.71094 38.4414 3.71094 38.5146C3.71094 38.5879 3.7028 38.6367 3.68652 38.6611C3.6377 38.6611 3.54411 38.653 3.40576 38.6367C3.26742 38.6286 3.10465 38.6164 2.91748 38.6001C2.73844 38.592 2.56755 38.5838 2.40479 38.5757C2.24202 38.5675 2.11182 38.5635 2.01416 38.5635C1.9165 38.5635 1.78223 38.5675 1.61133 38.5757C1.44857 38.5838 1.27767 38.592 1.09863 38.6001C0.919596 38.6164 0.760905 38.6286 0.622559 38.6367C0.484212 38.653 0.390625 38.6611 0.341797 38.6611ZM3.75977 35.4385C4.49219 35.4385 4.8584 34.8363 4.8584 33.6318C4.8584 32.0531 4.48812 31.2637 3.74756 31.2637C3.46273 31.2637 3.23486 31.3491 3.06396 31.52C2.89307 31.6909 2.80762 31.9066 2.80762 32.167V34.4741C2.80762 34.7834 2.90934 35.0234 3.11279 35.1943C3.31624 35.3571 3.5319 35.4385 3.75977 35.4385ZM7.31201 36.0488C7.27946 36.0163 7.26318 35.939 7.26318 35.8169C7.26318 35.6948 7.27946 35.6338 7.31201 35.6338C7.37712 35.6338 7.46257 35.6175 7.56836 35.585C7.67415 35.5524 7.77588 35.5117 7.87354 35.4629C7.97119 35.4141 8.02409 35.3693 8.03223 35.3286C8.08919 35.1007 8.11768 34.7915 8.11768 34.4009V32.6187C8.11768 32.1629 8.04443 31.8577 7.89795 31.7031C7.83285 31.6217 7.74333 31.5648 7.62939 31.5322C7.5236 31.4997 7.43001 31.4793 7.34863 31.4712C7.26725 31.4549 7.22656 31.4386 7.22656 31.4224C7.22656 31.1864 7.24691 31.0684 7.2876 31.0684C7.36084 31.0684 7.49512 31.0521 7.69043 31.0195C7.88574 30.987 8.1014 30.9463 8.3374 30.8975C8.58154 30.8486 8.80941 30.7998 9.021 30.751C9.24072 30.7021 9.40755 30.6615 9.52148 30.6289L9.65576 30.5923C9.69645 30.5923 9.73714 30.6208 9.77783 30.6777C9.81852 30.7266 9.83887 30.7673 9.83887 30.7998C9.79818 31.1579 9.76562 31.4386 9.74121 31.6421C9.7168 31.8455 9.70459 31.9717 9.70459 32.0205V34.2178C9.70459 34.6816 9.73714 35.0519 9.80225 35.3286C9.81852 35.3612 9.87142 35.4019 9.96094 35.4507C10.0586 35.4995 10.1603 35.5443 10.2661 35.585C10.3719 35.6175 10.4451 35.6338 10.4858 35.6338C10.5103 35.6338 10.5225 35.6948 10.5225 35.8169C10.5306 35.939 10.5265 36.0163 10.5103 36.0488C10.4451 36.0407 10.3068 36.0285 10.0952 36.0122C9.89176 36.0041 9.67611 35.9919 9.44824 35.9756C9.22038 35.9593 9.04134 35.9512 8.91113 35.9512C8.78092 35.9512 8.60189 35.9593 8.37402 35.9756C8.14616 35.9919 7.9305 36.0041 7.72705 36.0122C7.5236 36.0285 7.38525 36.0407 7.31201 36.0488ZM8.8501 29.3838C8.59782 29.3838 8.38216 29.2983 8.20312 29.1274C8.03223 28.9484 7.94678 28.7327 7.94678 28.4805C7.94678 28.2282 8.03223 28.0166 8.20312 27.8457C8.38216 27.6667 8.59782 27.5771 8.8501 27.5771C9.10238 27.5771 9.31396 27.6667 9.48486 27.8457C9.6639 28.0166 9.75342 28.2282 9.75342 28.4805C9.75342 28.7327 9.6639 28.9484 9.48486 29.1274C9.31396 29.2983 9.10238 29.3838 8.8501 29.3838ZM13.9893 36.0854C13.4684 36.0854 13.0005 35.9593 12.5854 35.707C12.1704 35.4548 11.8408 35.113 11.5967 34.6816C11.3525 34.2503 11.2305 33.7702 11.2305 33.2412C11.2305 32.7367 11.3607 32.2809 11.6211 31.874C11.8815 31.4671 12.2314 31.1457 12.6709 30.9097C13.1185 30.6655 13.6108 30.5435 14.1479 30.5435C14.563 30.5435 14.9455 30.6167 15.2954 30.7632C15.6453 30.9015 15.8976 31.0684 16.0522 31.2637C16.0522 32.0124 15.8325 32.3867 15.3931 32.3867C15.0757 32.3867 14.8356 32.1833 14.6729 31.7764C14.5996 31.5892 14.506 31.4508 14.3921 31.3613C14.2863 31.2637 14.1357 31.2148 13.9404 31.2148C13.2894 31.2148 12.9639 31.8252 12.9639 33.0459C12.9639 34.4212 13.4237 35.1089 14.3433 35.1089C14.62 35.1089 14.8763 35.0682 15.1123 34.9868C15.2751 34.938 15.4012 34.8932 15.4907 34.8525C15.5802 34.8118 15.6616 34.7671 15.7349 34.7183C15.8162 34.6613 15.9098 34.5921 16.0156 34.5107C16.0889 34.5433 16.1255 34.6206 16.1255 34.7427C16.1255 34.8485 16.1092 34.9299 16.0767 34.9868C16.0278 35.117 15.9017 35.2716 15.6982 35.4507C15.4948 35.6216 15.2425 35.7721 14.9414 35.9023C14.6484 36.0244 14.3311 36.0854 13.9893 36.0854ZM16.7969 36.0488C16.7643 36.0163 16.748 35.9308 16.748 35.7925C16.748 35.6623 16.7643 35.5972 16.7969 35.5972C16.862 35.5972 16.9556 35.5809 17.0776 35.5483C17.1997 35.5076 17.3136 35.4629 17.4194 35.4141C17.5252 35.3652 17.5822 35.3245 17.5903 35.292C17.6473 35.0641 17.6758 34.7549 17.6758 34.3643V29.5181C17.6758 29.3309 17.6676 29.1641 17.6514 29.0176C17.6432 28.8711 17.631 28.745 17.6147 28.6392C17.5822 28.509 17.3706 28.4438 16.98 28.4438H16.8701C16.8213 28.4438 16.7969 28.3625 16.7969 28.1997C16.7969 28.0614 16.8213 27.9922 16.8701 27.9922C17.1875 27.9596 17.4927 27.9149 17.7856 27.8579C18.0868 27.8009 18.3512 27.744 18.5791 27.687C18.8151 27.6219 18.9901 27.5771 19.104 27.5527L19.2505 27.5161C19.283 27.508 19.3156 27.5324 19.3481 27.5894C19.3807 27.6382 19.401 27.6829 19.4092 27.7236C19.3115 28.0898 19.2627 28.5008 19.2627 28.9565V32.8384C19.4824 32.7733 19.6208 32.7204 19.6777 32.6797C19.8405 32.5413 20.0114 32.3949 20.1904 32.2402C20.3776 32.0856 20.5485 31.9391 20.7031 31.8008C20.8415 31.6787 20.9432 31.5811 21.0083 31.5078C21.0815 31.4264 21.1182 31.3451 21.1182 31.2637C21.1182 31.1497 21.049 31.0928 20.9106 31.0928C20.7723 31.0846 20.6543 31.0724 20.5566 31.0562C20.5485 31.0236 20.5404 30.987 20.5322 30.9463C20.5322 30.9056 20.5322 30.8568 20.5322 30.7998C20.5322 30.6859 20.5485 30.6248 20.5811 30.6167L21.9727 30.6289C22.2087 30.6289 22.4325 30.6289 22.644 30.6289C22.8638 30.6208 23.0632 30.6126 23.2422 30.6045C23.2747 30.6126 23.291 30.6574 23.291 30.7388C23.2992 30.812 23.2992 30.8853 23.291 30.9585C23.2829 31.0236 23.2707 31.0562 23.2544 31.0562C23.0103 31.0562 22.7254 31.1497 22.3999 31.3369C21.8384 31.6624 21.2809 32.106 20.7275 32.6675C21.3623 33.3592 21.875 33.9411 22.2656 34.4131C22.6644 34.877 22.9411 35.1659 23.0957 35.2798C23.2015 35.3693 23.3398 35.4466 23.5107 35.5117C23.6816 35.5687 23.8037 35.5972 23.877 35.5972C23.9176 35.5972 23.938 35.6745 23.938 35.8291C23.938 35.9186 23.9299 35.9878 23.9136 36.0366L22.3755 35.9634C22.2778 35.9552 22.1517 35.9593 21.9971 35.9756C21.8424 35.9837 21.6593 35.9959 21.4478 36.0122L20.752 36.0488C20.7194 36.0163 20.7031 35.9308 20.7031 35.7925C20.7031 35.6623 20.7194 35.5972 20.752 35.5972C20.8333 35.5972 20.9269 35.5809 21.0327 35.5483C21.1385 35.5158 21.1914 35.4792 21.1914 35.4385C21.1914 35.4222 21.1873 35.41 21.1792 35.4019L19.397 33.3633L19.2627 33.3999V34.1812C19.2627 34.7183 19.2912 35.0885 19.3481 35.292C19.3644 35.3245 19.4255 35.3652 19.5312 35.4141C19.637 35.4629 19.7469 35.5076 19.8608 35.5483C19.9829 35.5809 20.0684 35.5972 20.1172 35.5972C20.1335 35.5972 20.1457 35.6297 20.1538 35.6948C20.1619 35.7599 20.166 35.8291 20.166 35.9023C20.166 35.9756 20.1579 36.0244 20.1416 36.0488C20.0928 36.0488 19.9992 36.0407 19.8608 36.0244C19.7225 36.0163 19.5597 36.0081 19.3726 36C19.1935 35.9837 19.0226 35.9715 18.8599 35.9634C18.6971 35.9552 18.5669 35.9512 18.4692 35.9512C18.3716 35.9512 18.2373 35.9552 18.0664 35.9634C17.9036 35.9715 17.7327 35.9837 17.5537 36C17.3747 36.0081 17.216 36.0163 17.0776 36.0244C16.9393 36.0407 16.8457 36.0488 16.7969 36.0488ZM27.063 36.0488C27.0304 36.0163 27.0142 35.9308 27.0142 35.7925C27.0142 35.6623 27.0304 35.5972 27.063 35.5972C27.1281 35.5972 27.2176 35.5809 27.3315 35.5483C27.4536 35.5076 27.5675 35.4629 27.6733 35.4141C27.7873 35.3652 27.8483 35.3245 27.8564 35.292C27.9134 35.0641 27.9419 34.7549 27.9419 34.3643V31.5688C27.9419 31.5119 27.9215 31.4834 27.8809 31.4834H27.063C27.0386 31.4834 27.0264 31.459 27.0264 31.4102C27.0264 31.3369 27.0467 31.2515 27.0874 31.1538C27.1362 31.048 27.2013 30.9544 27.2827 30.873C27.3641 30.7917 27.4495 30.751 27.5391 30.751H27.8809C27.9215 30.751 27.9419 30.7266 27.9419 30.6777V30.5923C27.9419 30.0226 28.0599 29.5059 28.2959 29.042C28.5319 28.5781 28.8534 28.2078 29.2603 27.9312C29.6753 27.6463 30.1392 27.5039 30.6519 27.5039C31.0099 27.5039 31.3192 27.5446 31.5796 27.626C31.8481 27.7074 32.015 27.805 32.0801 27.9189C32.1045 28.0736 32.1167 28.2363 32.1167 28.4072C32.1167 28.5863 32.0638 28.749 31.958 28.8955C31.8522 29.0339 31.7017 29.103 31.5063 29.103C31.3354 29.103 31.189 29.0298 31.0669 28.8833C30.9285 28.7287 30.8024 28.5863 30.6885 28.4561C30.5827 28.3258 30.4484 28.2607 30.2856 28.2607C30.0252 28.2607 29.834 28.4479 29.7119 28.8223C29.5898 29.1966 29.5288 29.6564 29.5288 30.2017V30.7021C29.5288 30.7428 29.5492 30.7632 29.5898 30.7632H30.9448C30.9855 30.7632 31.0059 30.7917 31.0059 30.8486C31.0059 31.0765 30.957 31.2881 30.8594 31.4834H29.6021C29.5532 31.4834 29.5288 31.5078 29.5288 31.5566V34.1812C29.5288 34.7183 29.5573 35.0885 29.6143 35.292C29.6305 35.3245 29.6916 35.3652 29.7974 35.4141C29.9032 35.4629 30.013 35.5076 30.127 35.5483C30.249 35.5809 30.3345 35.5972 30.3833 35.5972C30.3996 35.5972 30.4118 35.6297 30.4199 35.6948C30.4281 35.7599 30.4321 35.8291 30.4321 35.9023C30.4321 35.9756 30.424 36.0244 30.4077 36.0488C30.3589 36.0488 30.2653 36.0407 30.127 36.0244C29.9886 36.0163 29.8258 36.0081 29.6387 36C29.4596 35.9837 29.2887 35.9715 29.126 35.9634C28.9632 35.9552 28.833 35.9512 28.7354 35.9512C28.6377 35.9512 28.5034 35.9552 28.3325 35.9634C28.1698 35.9715 27.9989 35.9837 27.8198 36C27.6408 36.0081 27.4821 36.0163 27.3438 36.0244C27.2054 36.0407 27.1118 36.0488 27.063 36.0488ZM34.375 36.0854C33.846 36.0854 33.3618 35.9634 32.9224 35.7192C32.491 35.467 32.1452 35.1333 31.8848 34.7183C31.6325 34.2951 31.5063 33.8271 31.5063 33.3145C31.5063 32.7936 31.6325 32.3257 31.8848 31.9106C32.1452 31.4956 32.491 31.166 32.9224 30.9219C33.3618 30.6696 33.846 30.5435 34.375 30.5435C34.9121 30.5435 35.3963 30.6696 35.8276 30.9219C36.259 31.166 36.6007 31.4956 36.853 31.9106C37.1134 32.3257 37.2437 32.7936 37.2437 33.3145C37.2437 33.8271 37.1175 34.2951 36.8652 34.7183C36.613 35.1333 36.2671 35.467 35.8276 35.7192C35.3963 35.9634 34.9121 36.0854 34.375 36.0854ZM34.4971 35.4141C34.7249 35.4141 34.9121 35.3368 35.0586 35.1821C35.2051 35.0275 35.3109 34.8241 35.376 34.5718C35.4492 34.3114 35.4858 34.0347 35.4858 33.7417C35.4858 32.0571 35.0586 31.2148 34.2041 31.2148C33.9762 31.2148 33.7891 31.2962 33.6426 31.459C33.5042 31.6217 33.4025 31.8333 33.3374 32.0938C33.2723 32.3542 33.2397 32.6349 33.2397 32.936C33.2397 34.5881 33.6589 35.4141 34.4971 35.4141ZM40.7593 36.0854C40.2303 36.0854 39.7461 35.9634 39.3066 35.7192C38.8753 35.467 38.5295 35.1333 38.269 34.7183C38.0168 34.2951 37.8906 33.8271 37.8906 33.3145C37.8906 32.7936 38.0168 32.3257 38.269 31.9106C38.5295 31.4956 38.8753 31.166 39.3066 30.9219C39.7461 30.6696 40.2303 30.5435 40.7593 30.5435C41.2964 30.5435 41.7806 30.6696 42.2119 30.9219C42.6432 31.166 42.985 31.4956 43.2373 31.9106C43.4977 32.3257 43.6279 32.7936 43.6279 33.3145C43.6279 33.8271 43.5018 34.2951 43.2495 34.7183C42.9972 35.1333 42.6514 35.467 42.2119 35.7192C41.7806 35.9634 41.2964 36.0854 40.7593 36.0854ZM40.8813 35.4141C41.1092 35.4141 41.2964 35.3368 41.4429 35.1821C41.5894 35.0275 41.6951 34.8241 41.7603 34.5718C41.8335 34.3114 41.8701 34.0347 41.8701 33.7417C41.8701 32.0571 41.4429 31.2148 40.5884 31.2148C40.3605 31.2148 40.1733 31.2962 40.0269 31.459C39.8885 31.6217 39.7868 31.8333 39.7217 32.0938C39.6566 32.3542 39.624 32.6349 39.624 32.936C39.624 34.5881 40.0431 35.4141 40.8813 35.4141ZM46.7163 36.0732C46.2769 36.0732 45.8618 35.9634 45.4712 35.7437C45.0887 35.5239 44.7754 35.2147 44.5312 34.8159C44.2952 34.4172 44.1772 33.9492 44.1772 33.4121C44.1772 32.8669 44.3034 32.3786 44.5557 31.9473C44.8161 31.516 45.166 31.1742 45.6055 30.9219C46.0531 30.6696 46.5535 30.5435 47.1069 30.5435C47.4487 30.5435 47.7336 30.5801 47.9614 30.6533C47.9858 30.6533 47.998 30.5964 47.998 30.4824V29.5181C47.998 29.1763 47.9736 28.8833 47.9248 28.6392C47.8923 28.509 47.6807 28.4438 47.29 28.4438H47.1802C47.1313 28.4438 47.1069 28.3625 47.1069 28.1997C47.1069 28.0614 47.1313 27.9922 47.1802 27.9922C47.6522 27.9515 48.0957 27.8823 48.5107 27.7847C48.9339 27.687 49.235 27.6097 49.4141 27.5527L49.5361 27.5161H49.5605C49.5931 27.5161 49.6257 27.5405 49.6582 27.5894C49.6908 27.6382 49.7111 27.6829 49.7192 27.7236C49.6297 28.1061 49.585 28.5171 49.585 28.9565V34.2056C49.585 34.3846 49.5931 34.5799 49.6094 34.7915C49.6257 34.995 49.6623 35.1252 49.7192 35.1821C49.7843 35.231 49.8576 35.2594 49.939 35.2676C50.0203 35.2676 50.1261 35.2757 50.2563 35.292L50.3784 35.3042C50.4028 35.3123 50.415 35.3612 50.415 35.4507C50.415 35.6541 50.3906 35.7559 50.3418 35.7559C50.1383 35.764 49.9023 35.7884 49.6338 35.8291C49.3734 35.8698 49.117 35.9105 48.8647 35.9512C48.6125 35.9919 48.409 36.0244 48.2544 36.0488L48.0713 36.0732C48.0225 36.0814 47.998 36.0122 47.998 35.8657V35.6094C47.998 35.5443 47.9818 35.528 47.9492 35.5605C47.6074 35.9023 47.1965 36.0732 46.7163 36.0732ZM47.0337 35.3286C47.3104 35.3286 47.5382 35.2513 47.7173 35.0967C47.9045 34.9339 47.998 34.7386 47.998 34.5107V32.2891C47.998 32.1914 47.9899 32.0978 47.9736 32.0083C47.9574 31.9188 47.9207 31.8049 47.8638 31.6665C47.8068 31.5282 47.7051 31.4183 47.5586 31.3369C47.4202 31.2474 47.2453 31.2026 47.0337 31.2026C46.6512 31.2026 46.3704 31.3573 46.1914 31.6665C46.0205 31.9676 45.9351 32.4518 45.9351 33.1191C45.9351 34.5921 46.3013 35.3286 47.0337 35.3286Z" fill="#5C2D0A"/>
</g>
<defs>
<clipPath id="clip0_785_270">
<rect width="51" height="39" fill="white"/>
</clipPath>
</defs>
</svg>
